HIERARCHY
ROOT Hips
{
  OFFSET 0 0 0
  CHANNELS 6 Xposition Yposition Zposition Zrotation Yrotation Xrotation
  JOINT LeftThigh
  {
    OFFSET 8.409438 0 -5.917753
    CHANNELS 3 Zrotation Yrotation Xrotation
    JOINT LeftLeg
    {
      OFFSET 0 0 -42.358652
      CHANNELS 3 Zrotation Yrotation Xrotation
      JOINT LeftFoot
      {
        OFFSET 0 0 -39.357303
        CHANNELS 3 Zrotation Yrotation Xrotation
      }
    }
  }
  JOINT RightThigh
  {
    OFFSET -8.409438 0 -5.917753
    CHANNELS 3 Zrotation Yrotation Xrotation
    JOINT RightLeg
    {
      OFFSET 0 0 -42.358652
      CHANNELS 3 Zrotation Yrotation Xrotation
      JOINT RightFoot
      {
        OFFSET 0 0 -39.357303
        CHANNELS 3 Zrotation Yrotation Xrotation
      }
    }
  }
  JOINT SpineLow
  {
    OFFSET 0 0 4.719101
    CHANNELS 3 Zrotation Yrotation Xrotation
    JOINT SpineMid
    {
      OFFSET 0 0 12.899191
      CHANNELS 3 Zrotation Yrotation Xrotation
      JOINT Chest
      {
        OFFSET 0 0 12.899191
        CHANNELS 3 Zrotation Yrotation Xrotation
        JOINT LeftShoulder
        {
          OFFSET 7.550562 1.41573 9.438202
          CHANNELS 3 Zrotation Yrotation Xrotation
          JOINT LeftArm
          {
            OFFSET 9.155056 0 4.247191
            CHANNELS 3 Zrotation Yrotation Xrotation
            JOINT LeftForearm
            {
              OFFSET 0 0 25.771955
              CHANNELS 3 Zrotation Yrotation Xrotation
              JOINT LeftHand
              {
                OFFSET 0 0 25.197169
                CHANNELS 3 Zrotation Yrotation Xrotation
              }
            }
          }
        }
        JOINT RightShoulder
        {
          OFFSET -7.550562 1.41573 9.438202
          CHANNELS 3 Zrotation Yrotation Xrotation
          JOINT RightArm
          {
            OFFSET -9.155056 0 4.247191
            CHANNELS 3 Zrotation Yrotation Xrotation
            JOINT RightForearm
            {
              OFFSET 0 0 -25.771955
              CHANNELS 3 Zrotation Yrotation Xrotation
              JOINT RightHand
              {
                OFFSET 0 0 -25.197169
                CHANNELS 3 Zrotation Yrotation Xrotation
              }
            }
          }
        }
        JOINT Neck
        {
          OFFSET 0 0 15.101124
          CHANNELS 3 Zrotation Yrotation Xrotation
          JOINT Head
          {
            OFFSET 0 0 11.325843
            CHANNELS 3 Zrotation Yrotation Xrotation
            End Site
            {
              OFFSET 0 0 14.157303
            }
          }
        }
      }
    }
  }
}
MOTION
Frames: 14
Frame Time: 0.0
0.0  101.685394  0.0  -2.348906  0.966038  -100.917925  11.820626  -24.9632  3.873147  -3.811742  13.423817  25.88868  4.673089  4.714948  4.340069  -11.297057  9.365648  -1.18555  -0.145519  2.699415  19.250862  1.465781  1.715966  -0.713381  -4.048009  0.729538  2.683738  -10.972709  2.433024  7.193128  -10.972709  2.433024  7.193128  -15.752768  27.403539  8.814944  179.276721  68.836482  -155.314182  17.3106  -10.135284  6.40465  66.680684  2.782209  -3.466019  11.248979  -6.389391  14.540845  62.24042  11.189482  36.096464  -14.595939  -28.126243  -102.070562  58.595082  36.154854  -3.347838  13.340457  -2.158639  0.37036  10.00547  -1.611805  0.325073  
0.0  101.685394  0.0  -2.322312  1.07755  -100.865101  12.184813  -25.005844  3.815585  -4.207359  13.447393  25.662078  4.617428  4.693741  4.343098  -11.102438  9.380591  -1.203669  -0.470885  2.741839  19.295394  1.459851  1.678714  -0.693336  -4.054037  0.734566  2.652297  -10.989964  2.442167  7.106359  -10.989965  2.442167  7.106359  -15.681609  27.345103  8.845007  179.389632  68.778274  -155.202925  17.29318  -10.357204  6.533492  66.897692  2.817224  -3.508251  11.384439  -6.451385  14.61747  62.092386  11.317095  36.081128  -14.533618  -28.160933  -102.04337  58.752894  35.841554  -3.451108  13.349724  -2.155939  0.350845  10.012351  -1.610201  0.310404  
0.0  101.685394  0.0  -2.30467  1.316197  -100.771731  12.119974  -24.969436  3.612214  -4.565459  13.492443  25.457703  4.76016  4.729859  4.46165  -10.919506  9.395398  -1.141364  -0.736232  2.75053  19.30039  1.318768  1.618591  -0.715237  -4.081448  0.732585  2.616346  -11.066506  2.433707  7.007542  -11.066507  2.433708  7.007542  -15.506307  27.423403  8.849558  179.388897  68.805597  -155.195654  17.318394  -10.676426  6.758382  67.135198  2.862128  -3.464012  11.445628  -6.484037  14.615135  61.9221  11.388549  36.077458  -14.497288  -28.029828  -101.968407  59.157802  35.112186  -2.998056  13.356889  -2.140823  0.318057  10.017617  -1.599572  0.285498  
0.0  101.685394  0.0  -2.283919  1.509245  -100.713727  12.125334  -24.962124  3.540958  -4.776216  13.555189  25.343526  4.790763  4.717757  4.498866  -11.218627  9.483742  -1.178022  -0.711071  2.734519  19.299894  1.385727  1.588909  -0.702307  -4.094054  0.725906  2.590467  -11.102647  2.412535  6.937564  -11.102647  2.412535  6.937564  -15.453179  27.47656  8.820554  179.503417  68.847507  -155.031894  17.37357  -10.991505  6.976471  67.363547  2.922166  -3.373942  11.540721  -6.487068  14.637798  61.647966  11.566098  36.037628  -14.441043  -27.758815  -101.77272  59.651764  34.798529  -2.372932  13.348144  -2.095159  0.24811  10.010843  -1.566836  0.231984  
0.0  101.685394  0.0  -2.232911  1.762581  -100.588697  11.71638  -24.825061  3.321409  -4.779664  13.619754  25.355728  4.951917  4.72877  4.598035  -11.631439  9.57773  -1.245429  -0.537983  2.692819  19.284224  1.374181  1.567336  -0.713174  -4.107303  0.724458  2.56101  -11.140173  2.405039  6.856964  -11.140173  2.405039  6.856964  -15.321036  27.545562  8.773191  179.620131  68.807209  -155.01857  17.592553  -11.569561  7.458641  67.56962  3.000085  -3.23706  11.4742  -6.53523  14.586757  61.361796  11.726704  35.917745  -14.594308  -27.227802  -101.431247  60.259405  34.170982  -1.515922  13.292201  -2.072957  0.145472  9.968556  -1.552424  0.154294  
0.0  101.685394  0.0  -2.17468  1.821993  -100.510075  11.473451  -24.742838  3.239592  -4.632273  13.662911  25.437308  4.995722  4.734981  4.632164  -11.995475  9.681396  -1.311294  -0.367886  2.677536  19.254013  1.479871  1.55809  -0.707392  -4.087789  0.71819  2.548895  -11.087963  2.383973  6.825759  -11.087963  2.383973  6.825759  -15.318354  27.542792  8.641466  179.467345  68.833787  -155.009647  17.730873  -12.087791  7.775063  67.812975  3.0897  -2.983208  11.574834  -6.537807  14.596993  61.044329  11.988995  35.746833  -14.804445  -26.534985  -100.925375  60.916019  33.648975  -0.444111  13.254702  -2.000792  9.18E-4  9.940018  -1.501411  0.044134  
0.0  101.685394  0.0  -2.063991  1.950944  -100.397534  10.864823  -24.516526  3.068189  -4.275821  13.680942  25.642236  5.07605  4.744887  4.676792  -12.518753  9.826522  -1.480774  -0.113479  2.648064  19.284316  1.579517  1.561542  -0.723534  -4.066098  0.717916  2.542963  -11.028982  2.380042  6.810509  -11.028982  2.380042  6.810509  -15.246558  27.547902  8.479744  179.416805  68.74775  -155.049237  17.989273  -12.888136  8.428181  67.925037  3.141814  -2.724026  11.350411  -6.565301  14.47403  60.934329  12.250802  35.607975  -15.123868  -25.683336  -100.273736  61.59307  32.977616  0.576004  13.107174  -1.923006  -0.20596  9.828811  -1.447462  -0.11325  
0.0  101.685394  0.0  -1.948093  1.89297  -100.366402  10.49924  -24.346752  3.048576  -3.966275  13.694952  25.806237  5.150262  4.75785  4.722733  -12.737766  9.964947  -1.519338  -0.021528  2.686034  19.274149  1.745542  1.55388  -0.730262  -4.017385  0.721245  2.548298  -10.8954  2.385037  6.826488  -10.895399  2.385037  6.826488  -15.213559  27.469869  8.344294  179.104639  68.709921  -155.082721  18.002403  -13.662324  8.950102  67.954225  3.077799  -2.403778  11.479563  -6.596296  14.528681  60.577245  12.661183  35.291562  -15.546955  -24.728419  -99.44888  62.235157  32.388551  1.457692  13.02788  -1.851884  -0.388169  9.768887  -1.397942  -0.251738  
0.0  101.685394  0.0  -1.813012  1.943611  -100.317102  10.107466  -24.169304  3.081378  -3.738557  13.716657  25.892342  5.17825  4.765214  4.737484  -13.146698  10.109492  -1.631964  0.166416  2.731557  19.304082  1.893535  1.560948  -0.743089  -3.963068  0.724452  2.55184  -10.746594  2.388815  6.837832  -10.746595  2.388815  6.837832  -14.97756  27.45404  8.28146  178.819619  68.549833  -155.111358  18.107732  -14.737943  9.825005  67.992408  2.912404  -1.981554  11.368483  -6.671588  14.514728  60.331954  13.082562  35.023494  -16.002071  -23.688493  -98.544367  62.904232  31.773335  2.206597  12.783066  -1.782035  -0.582273  9.58484  -1.349409  -0.399583  
0.0  101.685394  0.0  -1.689852  1.883739  -100.40112  9.677146  -23.999059  3.188383  -3.466109  13.743658  26.041361  5.276284  4.776258  4.779377  -13.321075  10.260329  -1.551766  0.231334  2.812357  19.29205  2.071109  1.547209  -0.749857  -3.896141  0.734464  2.563011  -10.562383  2.411025  6.869443  -10.562383  2.411025  6.869443  -14.835883  27.364825  8.294203  178.598321  68.424437  -154.8957  17.982707  -15.730091  10.607813  68.003079  2.665105  -1.499999  11.500727  -6.767044  14.705801  59.973191  13.643057  34.644802  -16.473189  -22.566089  -97.616236  63.61295  31.132388  2.899397  12.622912  -1.739689  -0.697658  9.464486  -1.319848  -0.4875  
0.0  101.685394  0.0  -1.594019  1.750168  -100.514352  9.528533  -23.917454  3.41204  -3.356021  13.785501  26.079971  5.281279  4.760903  4.742977  -13.328411  10.337361  -1.410428  0.178268  2.92839  19.273747  2.262527  1.551354  -0.759492  -3.805292  0.732631  2.579434  -10.313765  2.399276  6.918196  -10.313765  2.399276  6.918196  -14.259973  27.516894  8.389374  178.229113  68.350661  -154.719463  17.959248  -16.988746  11.780763  67.96927  2.409552  -1.022335  11.442942  -6.859974  14.858284  59.745138  14.252978  34.308749  -16.96048  -21.26833  -96.548974  64.43426  30.376898  3.482256  12.368197  -1.705376  -0.804743  9.273236  -1.295952  -0.569259  
0.0  101.685394  0.0  -1.485352  1.775463  -100.561394  9.211713  -23.714263  3.486487  -3.307774  13.789565  26.120973  5.415304  4.77947  4.787846  -13.592991  10.474721  -1.372138  0.295844  3.012903  19.274689  2.418002  1.538523  -0.778647  -3.745481  0.734573  2.578587  -10.150249  2.398265  6.918013  -10.150249  2.398265  6.918012  -14.004605  27.502199  8.45865  178.168937  68.228226  -154.201219  17.812836  -18.137868  12.837803  67.92272  2.19787  -0.552107  11.637975  -6.980958  15.094697  59.39409  14.96521  33.898437  -17.54931  -19.681893  -95.307827  65.42389  29.469392  3.957822  12.204227  -1.663972  -0.863408  9.150198  -1.265824  -0.614557  
0.0  101.685394  0.0  -1.389006  1.801556  -100.585598  9.25977  -23.602178  3.630003  -3.430347  13.818009  26.075018  5.316915  4.749018  4.700773  -13.694947  10.542965  -1.282703  0.306871  3.090212  19.246283  2.542422  1.569054  -0.800835  -3.669706  0.728334  2.579293  -9.943873  2.373567  6.923898  -9.943874  2.373567  6.923899  -13.400459  27.666879  8.571091  177.537568  68.217159  -154.019906  17.846542  -19.475863  14.096711  67.930434  1.985992  -0.100244  11.645194  -7.12679  15.200403  59.169358  15.701493  33.55166  -18.131429  -17.707444  -93.875188  66.602765  28.474111  4.347389  11.989612  -1.654752  -0.917187  8.989125  -1.259638  -0.655663  
0.0  101.685394  0.0  -1.289254  1.929842  -100.586941  9.14023  -23.380941  3.594046  -3.599419  13.810365  26.05705  5.423189  4.753358  4.745402  -14.085749  10.679735  -1.278938  0.533246  3.14104  19.231288  2.617233  1.570571  -0.830079  -3.605634  0.723997  2.576393  -9.769418  2.354714  6.919159  -9.769418  2.354714  6.91916  -13.160233  27.663777  8.606855  177.040116  68.164198  -153.746062  17.860869  -20.754489  15.286549  67.93609  1.768872  0.282862  11.81044  -7.293617  15.347918  58.915097  16.547697  33.151207  -18.788711  -15.407602  -92.261341  67.973591  27.441781  4.760014  11.814615  -1.613294  -0.963755  8.857859  -1.229152  -0.691873  
